<?xml version="1.0" encoding="utf-8"?>
<!-- Generator: Adobe Illustrator 16.0.3, SVG Export Plug-In . SVG Version: 6.00 Build 0)  -->
<!DOCTYPE svg PUBLIC "-//W3C//DTD SVG 1.1//EN" "http://www.w3.org/Graphics/SVG/1.1/DTD/svg11.dtd">
<svg version="1.1" class="detalhes_t-shirt" xmlns="http://www.w3.org/2000/svg" xmlns:xlink="http://www.w3.org/1999/xlink" x="0px" y="0px" 
	width="432px" height="500px" viewBox="0 0 432 500" enable-background="new 0 0 432 500" xml:space="preserve"
	shape-rendering="geometricPrecision" text-rendering="geometricPrecision" image-rendering="optimizeQuality" fill-rule="evenodd" clip-rule="evenodd">
	<g class="manga" id="manga1" fill="#fff">
		<path d="M398.6,89.3c-1.9-3.7-4-7.5-6.9-11.5c-2.9-4-6.5-8.1-10.3-11.7c-0.7-0.7-1.4-1.3-2.1-1.9
		C366,86.3,357,116.1,354,127c0,1-0.1,2-0.1,2.8c-0.1,1.6-0.3,2.3-0.6,3.1c-0.3,0.9-0.8,1.9-1.1,2.7c-0.3,0.8-0.6,1.4-0.7,2.3
		c-0.2,1-0.3,2.3-0.5,5.2c-0.3,2.9-0.7,7.4-1.1,11c-0.4,3.6-0.7,6.2-1.3,12.3c-0.6,6.1-1.4,15.7-1.9,21.8c-0.5,6.1-0.6,8.6-1.1,11.9
		c-0.4,3.3-1.2,7.2-1.7,10.5c-0.6,3.2-1,5.7-1.4,7.9c-0.4,2.2-0.8,4.1-1.1,5.5c-0.3,1.4-0.5,2.4-0.6,3.2c-0.1,0.8-0.2,1.3-0.2,1.7
		c0,0.4,0,0.6,0,0.7c0,0.1,0,0.2,0,0.3c0,0,0,0,0,0c0,0,0,0,0,0c0,0,0,0,0,0c0,0,0,0,0,0c0,0,0,0,0,0c0,0,0,0,0,0s0,0,0,0l0.1,0.3
		c0.1,0.3,0.2,1,0.4,1.4c0.2,0.5,0.4,0.8,0.6,1c0.2,0.2,0.5,0.3,0.9,0.3c1.4,0.2,4.3,0.2,6.5,0.1c0.1,0,0.2,0,0.3,0
		c0.2,0,0.5,0,0.7,0c1.9-0.1,4-0.4,5.7-0.6c2.3-0.3,4.5-0.5,6.7-0.9c0,0,0.1,0,0.1,0c0.7-0.1,1.5-0.2,2.2-0.3
		c1.5-0.2,2.7-0.4,4.4-0.8c1.6-0.3,3.6-0.7,5.7-1.1c2-0.4,4.1-0.8,5.5-1.1c1.4-0.3,2.1-0.5,4.6-1c2.5-0.6,6.9-1.5,9.8-2.2
		c3-0.7,4.5-1.1,6.1-1.5c1.6-0.4,3.2-0.8,4.7-1.2c1.5-0.4,2.8-0.8,4.6-1.4c1.8-0.6,4.1-1.3,6-1.9c1.9-0.6,3.4-1.1,5.1-1.7
		c1.7-0.6,3.5-1.3,5.1-2c1.6-0.7,3-1.4,3.7-1.8c0.7-0.4,0.8-0.5,0.9-0.6c0.1-0.1,0.1-0.2,0.1-0.3c0,0,0,0,0,0c0,0,0,0,0,0
		c0,0,0,0,0,0c0,0,0,0,0,0c0,0,0,0,0,0c0,0,0,0,0.1,0c0.1,0,0.2-0.1,0.3-0.1c0,0,0.1-0.1,0.1-0.1c0,0,0-0.1,0-0.1c0,0,0,0,0,0
		c0-0.1,0-0.4,0-0.7c0-0.1,0-0.2,0-0.3c0,0,0,0,0,0c0-0.3-0.1-0.8-0.2-1.3c0-0.1,0-0.2,0-0.2c0-0.1,0-0.2-0.1-0.3
		c-0.1-0.3-0.1-0.5-0.2-0.8c-0.1-0.2-0.1-0.5-0.2-0.7c-0.1-0.3-0.1-0.6-0.2-0.8c0-0.1-0.1-0.2-0.1-0.3c0-0.2-0.1-0.3-0.1-0.5
		c0-0.1-0.1-0.2-0.1-0.4c0-0.2-0.1-0.3-0.1-0.5c0-0.1-0.1-0.2-0.1-0.3c-0.1-0.2-0.1-0.3-0.2-0.4c0-0.1-0.1-0.2-0.1-0.3
		c0-0.1-0.1-0.2-0.1-0.3c-0.1-0.2-0.1-0.3-0.2-0.5c0,0,0-0.1,0-0.1c-0.1-0.2-0.2-0.4-0.2-0.5c0,0,0,0,0-0.1
		c-0.1-0.2-0.2-0.4-0.3-0.6c-0.2-0.4-0.4-0.7-0.5-1c0-0.1-0.1-0.1-0.1-0.2c-0.1-0.2-0.1-0.2-0.1-0.2c0,0,0,0,0,0c0,0,0,0,0-0.1
		c0,0,0-0.1,0-0.1c0,0,0,0,0,0c0-0.1,0-0.1,0-0.2c0,0,0,0,0,0c0,0-0.1-0.1-0.1-0.1c0,0,0,0-0.1,0c0,0,0,0,0,0c0,0,0,0,0,0s0,0,0,0
		c0,0,0,0,0,0c0,0,0,0,0-0.3c0,0,0,0,0,0c0-0.2,0-0.4,0-0.6c0,0,0-0.1,0-0.1c0-0.2,0-0.3-0.1-0.4c0,0,0,0,0-0.1
		c0-0.2-0.1-0.3-0.2-0.5c0,0,0-0.1,0-0.1c-0.1-0.2-0.2-0.3-0.3-0.5c0,0,0,0,0,0c0,0,0,0,0-0.1c-0.1-0.1-0.1-0.2-0.1-0.2c0,0,0,0,0,0
		c0,0,0,0,0,0c0,0,0,0,0,0c0,0,0.1-0.2,0.1-0.2c0-0.1,0-0.1-0.1-0.2c0,0,0,0,0,0c0,0-0.1-0.1-0.2-0.1c0,0,0,0,0,0c0,0,0,0,0-0.1
		c0-0.1,0-0.1-0.1-0.3c0-0.2-0.1-0.4-0.1-0.7c-0.1-0.4-0.2-1-0.4-1.6c-0.1-0.5-0.3-1-0.6-1.8c-0.3-0.9-0.6-2-1.1-3.6
		c-0.3-0.9-0.6-2-0.9-3.1c-0.8-2.8-1.8-6.3-2.8-10.1c-0.3-1.1-0.6-2.3-0.9-3.5c-1.2-4.5-2.4-9.1-3.1-11.9c-0.8-3.1-1.1-4.2-1.2-4.7
		c0-0.1,0-0.2-0.1-0.2c0,0,0,0,0-0.1c-0.1-0.4-0.1-0.5-0.6-3.3c0-0.1,0-0.1,0-0.2c0-0.2,0-0.3-0.1-0.5c-0.5-3.1-1.3-8.7-2-12.3
		c0-0.2-0.1-0.4-0.1-0.5c0-0.2-0.1-0.5-0.1-0.7c0,0,0,0,0,0c0,0,0-0.1,0-0.1c-0.2-1.3-0.4-2.3-0.6-3.1c-0.3-1.2-0.5-2.2-0.8-3.3
		c-0.1-0.5-0.3-1.1-0.4-1.8c-1.1-4.4-2.2-9.3-3.4-14.1c-0.1-0.3-0.2-0.7-0.3-1.1c-0.1-0.5-0.2-0.9-0.4-1.4c-0.3-1.2-0.7-2.4-1-3.7
		c-0.8-2.8-1.6-5.6-2.6-8.3C402,96.7,400.4,93,398.6,89.3z"/>
		<path d="M55.1,64.2c-0.4,0.3-0.8,0.6-1.2,1c0,0-0.1,0.1-0.1,0.1c-0.6,0.5-1.2,1.1-1.8,1.7
		c0,0-0.1,0.1-0.1,0.1c-0.2,0.2-0.5,0.5-0.7,0.7C51.1,67.9,51,67.9,51,68c-0.9,1-1.8,2.1-3,3.4c-1.5,1.8-3.4,4.1-5,6.3
		c-1.6,2.1-2.8,4.1-4.3,6.6c-1.4,2.6-3.1,5.7-4.2,8.2c-1.2,2.4-1.9,4.2-2.8,6.6c-0.9,2.4-1.9,5.5-3.1,9.5c-1.1,4-2.4,8.9-3.3,12.4
		c-0.9,3.5-1.4,5.7-2.2,9.3c-0.8,3.6-1.9,8.7-2.6,12.3c-0.7,3.7-1.1,6-1.2,7.2c-0.2,1.2-0.2,1.2-0.8,3.3s-1.8,6.4-3,10.6
		c-1.2,4.2-2.5,8.4-3.9,12.8c-1.3,4.4-2.7,8.9-3.8,12.2c-1,3.3-1.7,5.3-2,6.6c-0.4,1.2-0.4,1.7-0.5,2.1c0,0.4,0,0.6,0,0.7
		c0,0.1,0,0.1,0,0.1c0,0-0.1,0-0.2,0.1c0,0,0,0-0.1,0.1c0,0,0,0,0,0c0,0,0,0.1,0,0.1c0,0.1,0,0.1,0.1,0.2c0,0,0,0.1,0.1,0.1
		c0,0,0,0,0,0c0,0,0,0-0.1,0.2c0,0-0.1,0.1-0.1,0.1c-0.1,0.1-0.1,0.2-0.2,0.3c0,0.1-0.1,0.1-0.1,0.2c0,0.1-0.1,0.2-0.1,0.2
		c0,0.1-0.1,0.2-0.1,0.3c0,0.1,0,0.1,0,0.2c0,0.1,0,0.2-0.1,0.3c0,0.1,0,0.2,0,0.2c0,0.1,0,0.2,0,0.3c0,0.1,0,0.1,0,0.2
		c0,0.1,0,0.1,0,0.2c0,0,0,0,0,0c0,0-0.1,0-0.2,0.1c0,0,0,0,0,0c0,0,0,0-0.1,0.1c0,0,0,0,0,0.1c0,0,0,0,0,0c0,0.1,0,0.1,0.1,0.2
		c0,0,0.1,0.1,0.1,0.1c0,0,0,0,0,0.1c0,0.1-0.1,0.3-0.3,0.5c-0.2,0.3-0.4,0.7-0.7,1.3c-0.3,0.7-0.6,1.6-0.9,2.6
		c-0.4,1-0.8,1.9-1.1,2.9c-0.3,0.7-0.5,1.3-0.6,1.9c0,0,0,0,0,0c-0.1,0.2-0.1,0.4-0.1,0.5c0,0.2-0.1,0.3-0.1,0.5c0,0.1,0,0.2,0,0.3
		c0,0.2,0,0.3,0,0.5c0,0,0,0.1,0,0.1c0,0.1,0,0.2,0,0.2c0,0,0,0,0,0.1c0,0,0,0,0,0c0.1,0,0.2,0.1,0.2,0.2c0.1,0.1,0.1,0.1,0.1,0.1
		c0,0,0,0,0.6,0.4c0.1,0.1,0.3,0.2,0.5,0.3c0,0,0.1,0.1,0.1,0.1c0.2,0.1,0.4,0.2,0.6,0.4c0.1,0,0.2,0.1,0.3,0.1
		c0.2,0.1,0.4,0.2,0.7,0.4c0.1,0.1,0.3,0.1,0.4,0.2c0.2,0.1,0.4,0.2,0.7,0.4c0.1,0.1,0.2,0.1,0.3,0.2c1.5,0.8,3.4,1.7,5.8,2.8
		c2.4,1.1,5.3,2.3,8,3.4c2.7,1,5.3,1.9,8.4,2.8c3.1,0.9,6.7,1.9,9.8,2.8c3.1,0.8,5.7,1.5,9.3,2.4c3.7,0.9,8.4,2,12.4,2.8
		c4,0.9,7.4,1.5,10.5,2.1c3.2,0.6,6.2,1.2,8.7,1.5c2.5,0.4,4.5,0.5,6.2,0.6c0.3,0,0.6,0,0.8,0c0.8,0,1.8,0.1,2.7,0.1
		c0.1,0,0.1,0,0.1,0c0.2,0,0.4,0,0.6,0c0.2,0,0.3,0,0.5,0c0.1,0,0.2,0,0.4,0c0.2,0,0.3,0,0.4,0c0.1,0,0.3,0,0.4,0c0.1,0,0.2,0,0.3,0
		c0.2,0,0.4,0,0.6-0.1c0.6-0.1,0.8-0.3,1-0.5c0.2-0.3,0.5-0.7,0.6-1.4c0.4-1.4,0.5-4,0.6-5.6c0-1.3,0-2.3-0.3-3.4c0,0,0,0,0,0
		c-0.1-0.3-0.2-0.7-0.3-1c0-0.1,0-0.1,0-0.1c0,0,0.1-0.1,0.2-0.2c0,0,0,0,0-0.1c0,0,0,0,0,0c0,0,0-0.1,0-0.1c0,0,0,0,0,0
		c0-0.1-0.1-0.1-0.1-0.1c0,0,0,0,0,0c0,0,0,0,0,0c0,0,0,0,0-0.1c0.2-0.6,0.3-1.1,0.2-1.8c0-0.3-0.1-0.6-0.1-0.7c0-0.1,0-0.1,0-0.2
		c0.1-0.1,0.2-0.2,0.2-0.3c0,0,0,0,0,0c0,0,0-0.1,0-0.1c0,0-0.1-0.1,0-0.2l0.3-0.5c0,0,0,0,0,0c0,0,0,0,0,0c0-0.5-0.1-1-0.1-1.9
		s-0.3-2.3-0.5-4.2c-0.2-1.9-0.6-4.4-0.9-6.8c-0.3-2.4-0.5-4.6-0.8-7.6c-0.3-3-0.6-6.6-0.8-9.5c-0.2-2.9-0.3-4.9-0.3-6.2
		c-0.1-1.3-0.1-1.8-0.4-3.4c-0.3-1.6-0.8-4.2-1.3-7.5c-0.6-3.3-1.2-7.4-1.9-11.4c-0.7-4-1.4-7.8-1.8-10.8c-0.4-3-0.5-5.2-0.6-6.6
		c-0.1-1.4-0.2-2.1-0.4-2.9c-0.2-0.9-0.5-2-0.5-3.1c-0.1-1.1,0-2.2,0.1-3.2c0.1-1,0.2-1.9,0.2-2.4c0-0.5,0-0.5-0.1-0.9
		c0-0.1-0.1-0.3-0.2-0.6l-0.9-0.6C81.5,131.2,71.6,91.7,55.1,64.2z"/>
	</g>
	<g class="friso" id="friso1" fill="#fff">
		<path d="M345.8,221.6c1.4,0.1,3.1,0.1,5.2-0.1c2.2-0.1,4.7-0.5,7.9-1s7.2-1.2,12.5-2.3
		c5.3-1.1,12.1-2.6,19.6-4.5c7.5-1.8,15.9-4,21-5.5c5.2-1.5,7.1-2.3,9.3-3.3s4.6-2.2,6-2.9c0.1-0.1,0.3-0.1,0.4-0.2l0.6-0.3
		c0.1,0,0.1-0.1,0.1-0.1c0,0,0,0,0,0c0,0,0.1-0.1,0.1-0.1c-0.1-0.1-0.2-0.3-0.2-0.3c-0.2-0.3-0.1-0.2,0-0.5c0-0.2-0.1-0.3-0.2-0.3
		c0,0,0,0,0-0.3c0-0.9-0.1-1.4-0.4-2.1c0,0,0,0,0,0l-1.2,1.2c-0.1,0-0.2,0.1-0.3,0.1l-0.2,0.1c-1.4,0.7-3.8,1.9-5.9,2.9
		c-2.1,1-3.9,1.7-8.9,3.2c-5,1.5-13.4,3.7-20.9,5.5c-6.2,1.6-12.8,3.1-19.5,4.5c-4.5,0.9-8.5,1.7-12.4,2.3l-0.3,0.1
		c-2.9,0.5-5.3,0.8-7.2,0.9l-0.1,0c-1.7,0.2-3.3,0.2-4.7,0.1c-1.3-0.1-2.3-0.2-3.2-0.3l-0.2,0c0,0,0,0.1,0,0.1c-0.2,1-0.4,2-0.5,2.8
		l0.5,0C343.5,221.4,344.5,221.5,345.8,221.6z"/>
		<path d="M90,223c-0.4,0-0.8-0.1-1.1-0.1h-0.7c-0.2,0-0.4,0-0.6,0c-0.2,0-0.4,0.1-0.8,0.1
		c-0.8,0-1.8,0-3.9-0.3l-1.4-0.2c-2.2-0.3-4.9-0.6-7.5-1.1c-3.3-0.6-6.4-1.2-10.7-2.2l-3.6-0.8c-3.5-0.8-7.2-1.7-10.5-2.5
		c-4.4-1.1-7.8-2-10.7-2.7c-2.5-0.7-4.3-1.2-6-1.7l-0.2-0.1c-1.6-0.4-3.3-0.9-4.8-1.5l-0.2-0.1c-0.8-0.2-1.5-0.5-2.3-0.8
		c-0.8-0.3-1.7-0.6-2.4-0.8c-1.2-0.4-2.3-0.8-3.4-1.3l-0.7-0.3c-1.1-0.4-1.9-0.8-2.8-1.4l-0.1-0.1c-0.4-0.2-0.8-0.4-1.2-0.6
		c-0.7-0.4-1.4-0.7-2-1.1l-0.1-0.1c-1.2-0.6-2.2-1.2-3.4-1.7c-0.9-0.4-1.9-1-2.6-1.4L6,200.4c-0.3-0.2-0.6-0.3-0.7-0.4
		c-0.3-0.2-0.5-0.3-0.6-0.3l0,0c0,0,0,0,0,0.1c-0.1,0.3-0.2,0.6-0.3,0.9c0,0.3-0.1,0.6-0.1,0.7s0,0.1,0,0.2c0,0-0.1,0-0.2,0.1
		c-0.1,0-0.1,0.1-0.1,0.2c0,0.1,0,0.1,0.1,0.2s0.1,0.1,0.1,0.1c0,0,0,0,0,0.1c0,0.1-0.1,0.3-0.3,0.5c0,0,0,0,0,0.1
		c0.2,0.1,0.4,0.2,0.7,0.4c0.7,0.4,1.9,1.1,3,1.6c1.1,0.5,2.1,1,3.2,1.6c1,0.6,2.2,1.2,3.3,1.8c1,0.6,2,1.1,3.3,1.6s2.8,1.1,4.3,1.6
		c1.6,0.5,3.2,1.1,4.8,1.6c1.6,0.6,3.3,1.1,5.1,1.6c1.7,0.6,3.5,1.1,6.2,1.8c2.7,0.7,6.2,1.6,10.7,2.7c4.5,1.1,9.8,2.3,14.1,3.3
		s7.5,1.6,10.8,2.2c3.3,0.6,6.8,1,9.1,1.3c2.3,0.3,3.5,0.3,4.3,0.3c0.8,0,1.2-0.1,1.4-0.1s0.2,0,0.7,0s1.4,0.1,2,0.1s0.8,0,0.9-0.1
		c0.2-0.1,0.2-0.2,0.3-0.3c0,0.1,0,0.1,0,0.1c0,0.1,0.1,0.1,0.1,0.2c0.1,0.1,0,0.1,0,0.2l-0.1,0.1c0,0.1,0,0.1,0,0.2
		c0,0.1,0.1,0.4,0.1,0.7l0.6-0.1c-0.1-0.4-0.1-0.7-0.2-1c-0.1-0.3-0.2-0.5-0.2-0.6c0-0.1,0-0.1,0-0.1c0,0,0.1-0.1,0.2-0.2
		c0-0.1,0-0.2,0-0.3c0-0.1-0.1-0.1-0.1-0.1c0,0,0,0,0,0l0,0.1c0,0.1,0,0.2,0,0.2c0,0.1-0.1,0.1-0.1,0.1l-0.1,0.2c0-0.1,0-0.1,0-0.1
		c0,0,0,0,0.1,0l0.1-0.4c0,0-0.1-0.1-0.1-0.1c0,0,0,0,0-0.2c0.2-0.6,0.3-1.1,0.2-1.8c0-0.3-0.1-0.6-0.1-0.7c0-0.1,0-0.1,0-0.2
		c0.1-0.1,0.2-0.2,0.2-0.3c0-0.2-0.2-0.1-0.1-0.3l0.3-0.5c0,0,0,0,0,0.3c0-0.1,0.1-0.2,0.1-0.2c0.1-0.1,0.1-0.1,0.1-0.1
		c0-0.1,0-0.1,0-0.2l-2.4,2.4C90.3,223,90.1,223,90,223z"/>
	</g>
	<g class="punho" id="punho1" fill="#fff">
		<path d="M341.6,232.5c0.2,0.2,0.5,0.3,0.9,0.3c1.7,0.2,5.1,0.2,7.5,0c1.9-0.1,4-0.4,5.7-0.6
		c3.1-0.4,5.9-0.7,9-1.2c1.5-0.2,2.7-0.4,4.4-0.8c1.6-0.3,3.6-0.7,5.7-1.1c2-0.4,4.1-0.8,5.5-1.1c1.4-0.3,2.1-0.5,4.6-1
		c2.5-0.6,6.9-1.5,9.8-2.2c3-0.7,4.5-1.1,6.1-1.5c1.6-0.4,3.2-0.8,4.7-1.2c1.5-0.4,2.8-0.8,4.6-1.4c1.8-0.6,4.1-1.3,6-1.9
		c1.9-0.6,3.4-1.1,5.1-1.7c1.7-0.6,3.5-1.3,5.1-2c1.6-0.7,3-1.4,3.7-1.8c0.7-0.4,0.8-0.5,0.9-0.6c0.1-0.1,0.1-0.2,0.1-0.3
		c0-0.1,0-0.1,0.1-0.1c0.1,0,0.2-0.1,0.3-0.1c0.1-0.1,0.1-0.1,0.1-0.2c0.1-0.6-0.4-3.3-0.7-4.5c-0.5-1.9-1.2-4.1-1.9-5.5
		c-0.1-0.2-0.2-0.4-0.3-0.6c-0.2,0.2-0.6,0.4-1.1,0.6c-1.4,0.7-3.8,1.9-6,2.9c-2.2,1-4.1,1.8-9.3,3.3c-5.1,1.5-13.5,3.7-21,5.5
		c-7.5,1.9-14.3,3.4-19.6,4.5c-5.3,1.1-9.3,1.8-12.5,2.3c-3.2,0.5-5.7,0.9-7.9,1c-2.1,0.2-3.8,0.2-5.2,0.1c-1.3-0.1-2.3-0.2-3.3-0.3
		c-0.1,0.5-0.2,1-0.3,1.5c-0.4,2.3-0.8,4.2-1.1,5.7c-0.2,1.1-0.4,2-0.5,2.6c0,0.1,0,0.2,0.1,0.2C341.1,232,341.3,232.3,341.6,232.5z
		"/>
		<path d="M92.2,230.5c-0.1-0.3-0.2-0.6-0.2-0.7c0-0.1,0-0.1,0-0.1c0.1,0,0.2-0.1,0.2-0.2
		c0-0.1,0-0.2,0-0.3c0-0.1-0.1-0.1-0.1-0.1c0,0,0,0,0-0.2s0.2-0.5,0.2-0.8c0-0.3,0-0.7,0-1c0-0.3-0.1-0.6-0.1-0.7c0-0.1,0-0.1,0-0.2
		c0,0,0.1-0.1,0.1-0.1c0-0.1,0.1-0.1,0-0.2c0-0.1-0.1-0.1-0.1-0.2c0,0,0,0,0-0.1c0,0,0,0,0,0c-0.1,0.1-0.1,0.2-0.3,0.3
		c-0.1,0.1-0.3,0.1-0.9,0.1c-0.6,0-1.5-0.1-2-0.1c-0.5,0-0.5,0-0.7,0c-0.2,0-0.6,0.1-1.4,0.1c-0.8,0-2,0-4.3-0.3s-5.8-0.7-9.1-1.3
		c-3.3-0.6-6.5-1.2-10.8-2.2c-4.3-1-9.6-2.2-14.1-3.3c-4.5-1.1-8-2-10.7-2.7c-2.7-0.7-4.5-1.2-6.2-1.8c-1.8-0.5-3.5-1-5.1-1.6
		c-1.6-0.5-3.2-1.1-4.8-1.6c-1.5-0.5-3-1.1-4.3-1.6c-1.3-0.5-2.3-1-3.3-1.6c-1.1-0.6-2.3-1.2-3.3-1.8c-1.1-0.6-2.1-1.1-3.2-1.6
		s-2.3-1.2-3-1.6c-0.7-0.4-1-0.6-1.2-0.7c0,0,0,0,0,0c-0.2,0.3-0.4,0.7-0.6,1.2c-0.2,0.6-0.5,1.3-0.8,2.1c0,0,0,0,0,0c0,0,0,0,0,0.1
		c0,0-0.1,0.1-0.1,0.2c0,0,0,0.1,0,0.1c-0.7,1.9-2,4.9-2.1,6.7c0,0.4,0.1,0.2,0.3,0.5c0.1,0.1,0.1,0.1,0.1,0.1c0,0,0,0,0.6,0.4
		c2.7,1.7,5.6,3.1,9.3,4.8c2.4,1.1,5.3,2.3,8,3.4c2.7,1,5.3,1.9,8.4,2.8c3.1,0.9,6.7,1.9,9.8,2.8c3.1,0.8,5.7,1.5,9.3,2.4
		s8.4,2,12.4,2.8c4,0.9,7.3,1.5,10.5,2.1c3.2,0.6,6.2,1.2,8.7,1.5c2.5,0.4,4.5,0.5,6.2,0.6c2,0.1,5.4,0.3,6.9,0
		c0.6-0.1,0.8-0.3,1-0.5c0.2-0.3,0.5-0.7,0.6-1.4c0.2-0.6,0.3-1.5,0.4-2.4c0-0.4,0-0.7-0.1-1C92.4,231.3,92.3,230.9,92.2,230.5z"/>
	</g>
</svg>

<svg version="1.1" class="detalhes_polo" xmlns="http://www.w3.org/2000/svg" xmlns:xlink="http://www.w3.org/1999/xlink" x="0px" y="0px" 
      width="371.92px" height="480px" viewBox="0 0 371.92 480" enable-background="new 0 0 371.92 480" xml:space="preserve">
        <g class="manga" id="manga1" fill="#fff">
          <path d="M56.9,147.7c-3.2-9.5-6.8-21.3-9.1-34.5c-2.4-13.2-3.3-27.8-3.5-38c-0.2-9.1,0.3-14.5,1-19.5
          c-2.8,1.6-11.7,7.7-19.8,23c-9.7,18.3-15,29.4-18.3,57.5c0,0-5.2,35.3-5.8,44.8l-1.3,14.3c0,0-1.4,3,3.2,6.2
          c4.6,3.2,11.9,10.3,41.6,10.9c0,0,23,1.1,23.6-11.1l0.7-13c0,0,0.1-1.4,0.2-1.5c0.1-0.1,0.9-1.1,0.9-1.1c-1.3-4.9-3.2-9.1-5.2-15.2
          C63.1,164.4,60.1,157.3,56.9,147.7z"/>
          <path d="M302,190.3l0.4,11.1c0,0,0,5.8,7.9,8.1c7.9,2.3,12.8,2.7,32.6,0.6c19.8-2,28.3-12.8,28.3-12.8
          s1.2-2.6-0.4-6.2l-2.5-26.2l-7.7-47.3c0,0-4.1-25.9-23.7-51.6c0,0-3.8-6.6-16.2-12.6c-0.6-0.3-1.2-0.6-1.9-0.9c0,0,0,0,0,0
          c0.5,3.2,1,6.7,1.3,10.8c1,8.9,1.6,20.2,1.9,32.8c0.3,12.6,0.5,26.2-1.6,36.6c-2.1,10.3-5.7,17.2-9.4,25.6
          c-3.5,8.1-7.2,16.6-10.4,26.2l0,0.5l0.9,2.3L301,190.3z"/>
        </g>
        <g class="friso" id="friso1" fill="#fff">
          <path d="M7.6,191.3c6.6,3.1,14.2,5.3,26.7,6.8c12.5,1.6,26.9-1.5,26.9-1.5s5.4-0.9,7.6-5.1l0.2-3.3
          c-2.1,4.5-7.8,5.5-7.8,5.5s-14.5,3.1-26.9,1.5c-12.5-1.6-20.1-3.7-26.7-6.8c-3.5-1.6-5.4-3.5-6.4-4.8L1,186.1
          C2,187.5,3.8,189.5,7.6,191.3z"/>
          <path d="M308.8,196.2c7,2.1,15.5,2.2,23.3,1.9c7.8-0.3,23.1-3.6,25.2-4.9c0,0,9.5-2.8,13-8.1
          l-0.3-2.6c-3.6,5.1-12.7,7.8-12.7,7.8c-2.1,1.4-17.5,4.6-25.2,4.9c-7.8,0.3-16.3,0.1-23.3-1.9c-3.6-1.1-5.6-2.7-6.8-4.1l0,1l0,0.2
          l0.1,1.9C302.3,193.6,304.3,195.2,307.8,196.2z"/>
        </g>
        <g class="punho" id="punho1" fill="#fff">
          <path d="M370.3,184.9c-3.4,5.4-13.1,8.3-13.1,8.3c-2.1,1.4-17.5,4.6-25.2,4.9c-7.8,0.3-16.3,0.1-23.3-1.9
          c-3.6-1.1-5.6-2.7-6.8-4.1l0.4,9.4c0,0,0,5.8,7.9,8.1c7.9,2.4,12.8,2.7,32.7,0.6c19.9-2,28.4-12.8,28.4-12.8s1.2-2.6-0.4-6.2
          L369.3,184.9z"/>
          <path d="M69.1,191.2c-2.1,4.5-7.8,5.5-7.8,5.5s-14.5,3.1-26.9,1.5c-12.5-1.6-20.1-3.7-26.7-6.8c-4.2-2-6-4.1-6.9-5.5
          l-0.8,9.3c0,0-1.4,3,3.2,6.2s12,10.4,41.7,10.9c0,0,23.1,1.1,23.7-11.1L69.1,191.2z"/>
        </g>
        <g class="golas_verso">
          <path class="gola" id="golaEE" fill="#fff" d="M135.8,6.2c0,0-4.6,2.9-12.2,16.7c0,0-3,4.5-6.1,7.4l2.3-0.8c0,0,1.3-1.7,6.4-2.8c5.1-1.1,23.9-1.7,23.9-1.7
          l28.4-1.1l33.6,0.2l18.6,0.7c0,0,13.8-0.4,17.3,2.6l1.5,1.1l1.2,0.4l-4.2-6.3c0,0-4.8-16.5-16-20.9c0,0-40.6-3.5-88.1,0.2
          C141.5,1.7,138.7,2.4,134.8,6.2z"/>
        </g>
      </svg>