<?xml version="1.0" encoding="utf-8"?>
<!-- Generator: Adobe Illustrator 16.0.3, SVG Export Plug-In . SVG Version: 6.00 Build 0)  -->
<!DOCTYPE svg PUBLIC "-//W3C//DTD SVG 1.1//EN" "http://www.w3.org/Graphics/SVG/1.1/DTD/svg11.dtd">
<svg version="1.1" id="molde_t-shirt" xmlns="http://www.w3.org/2000/svg" xmlns:xlink="http://www.w3.org/1999/xlink" x="0px" y="0px" 
	width="420px" height="500px" viewBox="0 0 420 500" enable-background="new 0 0 420 500" xml:space="preserve"
	shape-rendering="geometricPrecision" text-rendering="geometricPrecision" image-rendering="optimizeQuality" fill-rule="evenodd" clip-rule="evenodd">
	<path d="M259.991,4.401c0.708,0.386,1.172,0.747,1.642,1.212c0.469,0.467,0.944,1.038,1.593,1.727
	c0.647,0.688,1.468,1.496,2.282,2.108c0.813,0.613,1.623,1.031,2.294,1.397c0.67,0.367,1.203,0.683,1.735,1.085
	c0.521,0.396,1.042,0.874,1.42,1.236c0.142,0.101,0.278,0.196,0.407,0.28c0.203,0.134,0.384,0.238,1.464,1.125
	c1.08,0.885,3.061,2.551,5.888,4.499c2.826,1.948,6.5,4.178,11.303,6.586c4.804,2.408,10.735,4.995,16.035,7.313
	c5.302,2.32,9.972,4.372,13.587,5.948c3.615,1.577,6.174,2.677,8.776,3.751s5.249,2.121,7.688,3.144
	c2.44,1.024,4.676,2.025,6.601,2.896c1.927,0.871,3.545,1.611,5.254,2.488c1.709,0.878,3.509,1.892,5.328,2.941
	c1.818,1.049,3.656,2.132,5.226,3.131c1.57,0.998,2.872,1.912,4.174,2.916c1.303,1.002,2.605,2.095,4.026,3.358
	c1.422,1.263,2.962,2.699,4.656,4.474c1.696,1.775,3.547,3.891,4.815,5.413c1.268,1.522,1.953,2.45,2.751,3.573
	c0.797,1.124,1.707,2.445,2.913,4.508s2.71,4.869,3.731,6.893c1.021,2.025,1.56,3.268,2.202,4.84
	c0.643,1.572,1.388,3.473,2.001,5.17c0.615,1.697,1.101,3.192,1.625,4.949c0.525,1.757,1.093,3.777,1.637,6.099
	c0.543,2.321,1.064,4.944,1.407,6.768c0.343,1.823,0.508,2.847,0.667,3.55c0.159,0.704,0.315,1.088,0.836,2.807
	c0.521,1.717,1.407,4.77,2.399,9.148c0.991,4.378,2.088,10.081,3.031,14.459c0.944,4.378,1.735,7.43,2.368,9.786
	s1.108,4.014,1.481,5.317c0.371,1.303,0.641,2.249,0.978,3.43c0.336,1.181,0.737,2.598,1.188,4.057
	c0.45,1.461,0.948,2.964,1.374,4.381c0.425,1.417,0.776,2.746,1.403,4.955c0.628,2.208,1.53,5.295,2.289,7.741
	c0.759,2.446,1.372,4.251,1.753,5.384c0.381,1.134,0.526,1.595,0.627,2.036c0.102,0.441,0.156,0.861,0.178,1.085
	c0.022,0.224,0.012,0.251,0.038,0.282c0.025,0.031,0.088,0.065,0.135,0.124s0.078,0.14,0.068,0.207
	c-0.009,0.066-0.061,0.116-0.083,0.151s-0.016,0.053,0.12,0.243c0.137,0.19,0.401,0.552,0.561,1.004
	c0.16,0.451,0.215,0.993,0.251,1.268c0.037,0.276,0.057,0.287,0.088,0.31c0.033,0.021,0.078,0.055,0.092,0.088s0,0.064-0.024,0.098
	c-0.022,0.035-0.054,0.07-0.068,0.106c-0.016,0.036-0.016,0.073,0.03,0.154c0.048,0.081,0.142,0.206,0.262,0.44
	c0.119,0.233,0.266,0.573,0.465,1.119c0.2,0.546,0.454,1.298,0.741,2.111c0.286,0.813,0.606,1.688,0.96,2.632
	c0.355,0.943,0.743,1.956,0.982,2.735c0.24,0.779,0.332,1.324,0.337,1.654c0.005,0.329-0.078,0.441-0.356,0.563
	c-0.278,0.123-0.754,0.256-2.084,0.726s-3.514,1.279-7.33,2.598c-3.816,1.318-9.263,3.146-14.811,4.942
	c-5.548,1.795-11.196,3.56-15.739,4.875c-4.542,1.316-7.979,2.185-11.748,3.012c-3.771,0.827-7.874,1.613-11.877,2.347
	c-4.004,0.733-7.906,1.414-11.142,1.9c-3.234,0.486-5.804,0.779-7.639,0.942c-1.835,0.164-2.936,0.198-3.825,0.23
	c-0.889,0.032-1.564,0.062-1.998,0.042c-0.435-0.019-0.627-0.087-0.845-0.314s-0.463-0.61-0.648-1.066
	c-0.186-0.456-0.313-0.983-0.376-1.247c-0.063-0.265-0.063-0.265-0.063-0.265s0,0-0.004,0.022c-0.005,0.022-0.014,0.065-0.152,1.254
	c-0.138,1.189-0.405,3.523-0.731,7.834c-0.325,4.311-0.709,10.598-0.865,22.69c-0.155,12.092-0.081,29.986-0.095,43.766
	c-0.014,13.777-0.115,23.439-0.119,30.619c-0.005,7.182,0.087,11.884,0.15,14.873c0.064,2.988,0.101,4.264,0.138,5.539
	c0.05,2.074,0.1,4.148,0.29,7.554c0.189,3.405,0.519,8.139,0.853,15.642c0.333,7.504,0.671,17.777,1.048,25.964
	s0.793,14.287,1.149,19.093c0.356,4.805,0.653,8.314,0.864,10.871c0.21,2.557,0.333,4.162,0.468,5.65
	c0.136,1.49,0.281,2.866,0.431,4.285c0.147,1.419,0.299,2.882,0.524,4.445c0.227,1.563,0.528,3.229,0.806,4.779
	s0.531,2.983,0.715,4.123c0.184,1.139,0.297,1.985,0.357,2.643c0.062,0.659,0.07,1.129,0.08,1.396
	c0.009,0.268,0.018,0.331,0.023,0.384c0.005,0.053,0.006,0.094,0.015,0.137c0.009,0.042,0.024,0.085,0.073,0.251
	c0.049,0.165,0.129,0.454,0.166,0.778c0.037,0.325,0.028,0.688,0.023,0.877c-0.007,0.19-0.009,0.209,0.011,0.228
	c0.021,0.02,0.063,0.038,0.092,0.075s0.045,0.091,0.048,0.142c0.002,0.051-0.007,0.099-0.009,0.137
	c-0.002,0.039,0.004,0.066,0.017,0.103c0.012,0.036,0.03,0.08,0.036,0.134c0.007,0.055,0.001,0.12-0.004,0.161
	c-0.006,0.04-0.011,0.058,0.026,0.162c0.038,0.105,0.116,0.299,0.22,0.608c0.104,0.311,0.231,0.738,0.412,1.875
	c0.18,1.137,0.413,2.983,0.585,4.461c0.172,1.479,0.281,2.589,0.358,3.441c0.078,0.853,0.124,1.446,0.036,1.855
	c-0.086,0.408-0.306,0.633-0.498,0.757c-0.194,0.125-0.36,0.15-0.474,0.223c-0.112,0.071-0.173,0.19-0.233,0.509
	c-0.061,0.319-0.122,0.838-0.297,1.446c-0.175,0.609-0.463,1.309-0.942,1.946c-0.48,0.638-1.151,1.213-1.849,1.757
	c-0.696,0.543-1.419,1.056-3.196,1.883c-1.778,0.827-4.61,1.969-7.855,3.039c-3.245,1.069-6.9,2.065-9.842,2.747
	c-2.939,0.68-5.166,1.046-7.171,1.394c-2.007,0.347-3.794,0.676-6.063,1.029c-2.269,0.354-5.021,0.734-9.272,1.123
	c-4.254,0.388-10.01,0.785-13.798,1.043c-3.789,0.257-5.609,0.373-7.887,0.493c-2.276,0.12-5.01,0.243-7.42,0.378
	s-4.499,0.281-5.87,0.394c-1.371,0.111-2.024,0.188-3.416,0.352c-1.392,0.162-3.521,0.408-5.897,0.672
	c-2.376,0.263-4.999,0.542-7.316,0.784c-2.316,0.241-4.327,0.447-6.181,0.568c-1.853,0.121-3.548,0.158-5.339,0.189
	c-1.792,0.032-3.679,0.06-5.354,0.039c-1.675-0.021-3.137-0.09-4.919-0.156c-1.782-0.065-3.885-0.13-5.991-0.195
	c-2.106-0.066-4.218-0.136-6.368-0.128c-2.15,0.006-4.339,0.089-6.613,0.15c-2.272,0.063-4.631,0.104-6.669,0.08
	s-3.756-0.109-5.355-0.299c-1.6-0.19-3.08-0.483-5.995-0.933c-2.917-0.45-7.267-1.058-11.271-1.545
	c-4.006-0.486-7.667-0.852-10.538-1.129c-2.872-0.276-4.956-0.464-7.054-0.636c-2.098-0.171-4.209-0.326-6.382-0.475
	s-4.407-0.29-6.305-0.428c-1.896-0.136-3.454-0.269-5.095-0.362s-3.363-0.148-5.245-0.241s-3.922-0.223-5.353-0.342
	s-2.251-0.226-3.187-0.358c-0.938-0.131-1.991-0.286-3.195-0.518c-1.204-0.229-2.559-0.536-3.72-0.8
	c-1.16-0.264-2.127-0.486-3.108-0.686c-0.982-0.2-1.978-0.378-3.738-0.742c-1.76-0.362-4.285-0.911-6.008-1.265
	c-1.724-0.354-2.644-0.515-3.455-0.659c-0.811-0.144-1.513-0.271-2.218-0.389c-0.704-0.116-1.413-0.221-2.185-0.363
	c-0.772-0.143-1.608-0.323-2.332-0.526c-0.723-0.204-1.333-0.43-1.835-0.643c-0.502-0.212-0.895-0.411-1.2-0.6
	c-0.307-0.188-0.526-0.366-0.767-0.619c-0.241-0.253-0.504-0.58-0.862-0.925c-0.357-0.345-0.811-0.708-1.217-1.061
	c-0.406-0.351-0.768-0.692-1.077-1.003c-0.309-0.313-0.567-0.596-0.773-0.857c-0.205-0.262-0.358-0.502-0.53-0.827
	c-0.171-0.327-0.36-0.739-0.543-1.252c-0.181-0.512-0.354-1.124-0.409-1.956c-0.056-0.832,0.009-1.883,0.068-2.888
	s0.114-1.966,0.224-3.181c0.11-1.214,0.274-2.684,0.381-3.567c0.105-0.884,0.151-1.184,0.174-1.398
	c0.022-0.214,0.021-0.343,0.033-0.438c0.013-0.098,0.042-0.163,0.066-0.212s0.045-0.081,0.062-0.104
	c0.017-0.024,0.029-0.04,0.028-0.054c0-0.014-0.014-0.025-0.024-0.049c-0.01-0.022-0.018-0.059-0.021-0.109
	c-0.005-0.05-0.007-0.115,0.002-0.161c0.011-0.045,0.032-0.071,0.05-0.084c0.017-0.014,0.029-0.014,0.041-0.03
	s0.021-0.049,0.018-0.08c-0.003-0.03-0.021-0.058-0.029-0.092c-0.008-0.035-0.008-0.077,0.001-0.117
	c0.01-0.04,0.027-0.078,0.039-0.242c0.011-0.164,0.013-0.454,0.03-0.707c0.018-0.252,0.049-0.467,0.06-0.586
	c0.011-0.118,0.002-0.142-0.003-0.18c-0.005-0.039-0.005-0.095,0.007-0.142c0.012-0.048,0.034-0.088,0.051-0.112
	c0.016-0.025,0.027-0.035,0.024-0.049c-0.002-0.013-0.018-0.029-0.034-0.053s-0.036-0.054-0.043-0.097
	c-0.008-0.042-0.001-0.096,0.007-0.137c0.007-0.04,0.019-0.067,0.034-0.087s0.038-0.031,0.052-0.042
	c0.014-0.012,0.019-0.022,0.02-0.047c0.002-0.025-0.002-0.063-0.014-0.101c-0.013-0.036-0.032-0.073-0.032-0.11
	c0.001-0.036,0.022-0.072,0.045-0.122c0.023-0.052,0.049-0.115,0.071-0.275c0.021-0.161,0.04-0.418,0.071-0.829
	c0.032-0.412,0.078-0.979,0.199-1.734c0.121-0.758,0.317-1.702,0.507-2.831c0.19-1.129,0.373-2.44,0.62-4.601
	c0.246-2.158,0.558-5.166,1.005-11.229c0.447-6.064,1.033-15.186,1.51-24.314c0.478-9.128,0.848-18.263,1.043-23.093
	c0.193-4.83,0.213-5.356,0.2-5.706c-0.012-0.349-0.053-0.522-0.224-1.636c-0.172-1.112-0.473-3.165-0.743-5.337
	c-0.269-2.174-0.507-4.467-0.561-6.322c-0.056-1.855,0.072-3.271,0.251-4.985c0.178-1.714,0.406-3.726,0.895-6.201
	c0.489-2.478,1.239-5.42,1.829-7.474c0.589-2.055,1.019-3.221,1.247-3.9c0.229-0.682,0.256-0.879,0.346-1.945
	c0.089-1.066,0.239-3.004,0.374-6.445s0.254-8.386,0.354-14.701c0.1-6.316,0.183-14.002,0.214-20.889
	c0.032-6.887,0.014-12.973-0.136-23.123c-0.152-10.15-0.435-24.361-0.702-33.039c-0.268-8.678-0.519-11.822-0.778-14.326
	c-0.259-2.504-0.526-4.369-0.748-5.942c-0.222-1.572-0.397-2.853-0.494-3.666s-0.113-1.159-0.121-1.332s-0.008-0.173-0.008-0.173
	s0,0-0.079,0.013c-0.08,0.013-0.238,0.037-0.568,0.078s-0.833,0.098-1.596,0.132c-0.762,0.033-1.782,0.042-3.486-0.017
	c-1.703-0.059-4.089-0.188-7.539-0.594c-3.449-0.406-7.965-1.092-12.475-1.847c-4.512-0.754-9.017-1.576-13.274-2.504
	c-4.256-0.928-8.264-1.96-11.059-2.706c-2.794-0.745-4.375-1.202-7.535-2.173c-3.16-0.971-7.899-2.456-11.732-3.688
	c-3.834-1.231-6.764-2.209-9.569-3.236c-2.807-1.027-5.488-2.104-6.883-2.668c-1.394-0.564-1.498-0.617-1.545-0.812
	c-0.045-0.196-0.031-0.534,0.054-1.064c0.087-0.53,0.244-1.251,0.485-2.237c0.241-0.985,0.564-2.232,0.938-3.382
	c0.372-1.149,0.793-2.2,1.123-2.916c0.329-0.715,0.568-1.094,0.684-1.294c0.114-0.201,0.107-0.223,0.083-0.245
	c-0.023-0.023-0.063-0.045-0.092-0.089c-0.029-0.043-0.047-0.109-0.032-0.166c0.015-0.056,0.061-0.104,0.103-0.125
	c0.043-0.02,0.083-0.012,0.109-0.012c0.026,0,0.039-0.006,0.044-0.122s0.001-0.341,0.022-0.62c0.022-0.278,0.071-0.609,0.167-0.918
	c0.096-0.31,0.24-0.598,0.351-0.808c0.111-0.21,0.188-0.343,0.22-0.43c0.03-0.088,0.015-0.132,0.006-0.194
	c-0.007-0.061-0.007-0.141,0.021-0.201c0.028-0.059,0.085-0.098,0.139-0.126c0.054-0.029,0.104-0.047,0.13-0.127
	c0.026-0.08,0.029-0.221,0.064-0.436c0.036-0.215,0.104-0.503,0.269-1.013c0.165-0.509,0.425-1.241,1.013-3.228
	c0.587-1.989,1.501-5.233,2.266-7.948c0.767-2.714,1.383-4.898,1.968-7.015c0.585-2.117,1.138-4.167,1.75-6.531
	c0.612-2.365,1.285-5.045,2.36-9.27c1.076-4.224,2.557-9.991,3.385-13.199c0.826-3.207,1-3.856,1.165-4.894
	c0.164-1.037,0.319-2.463,0.58-4.076s0.626-3.414,1.274-6.397c0.649-2.984,1.582-7.152,2.377-10.74
	c0.795-3.586,1.453-6.594,2.238-9.5c0.786-2.906,1.7-5.712,2.737-8.563c1.038-2.852,2.199-5.749,3.268-8.208
	c1.07-2.458,2.048-4.478,2.904-6.094c0.857-1.616,1.592-2.826,2.408-4.111c0.816-1.283,1.712-2.642,2.776-4.085
	c1.065-1.445,2.299-2.976,3.706-4.614c1.408-1.638,2.989-3.384,4.685-5.083c1.694-1.7,3.505-3.355,5.442-4.931
	c1.938-1.577,4.003-3.076,6.246-4.566c2.244-1.489,4.666-2.97,7.381-4.437c2.715-1.466,5.722-2.92,9.295-4.522
	c3.573-1.601,7.714-3.352,10.533-4.54c2.82-1.188,4.319-1.814,6.605-2.786c2.287-0.97,5.362-2.287,7.57-3.23
	c2.207-0.944,3.546-1.516,5.056-2.187c1.512-0.671,3.193-1.444,4.442-2.018c1.25-0.573,2.068-0.948,3.217-1.487
	c1.15-0.539,2.63-1.243,4.531-2.182c1.901-0.939,4.223-2.114,6.078-3.045c1.855-0.933,3.244-1.623,4.732-2.418
	c1.487-0.795,3.072-1.695,4.766-2.619c1.693-0.922,3.494-1.869,4.944-2.706c1.451-0.836,2.553-1.563,3.564-2.356
	c1.013-0.794,1.936-1.655,2.714-2.276c0.606-0.484,1.125-0.821,1.623-1.126c0.012-0.014,0.023-0.028,0.035-0.043
	c0.314-0.385,0.623-0.719,0.929-0.998c0.307-0.28,0.61-0.507,1.041-0.762c0.431-0.256,0.988-0.542,1.523-0.813
	c0.536-0.271,1.05-0.527,1.52-0.897s0.896-0.854,1.58-1.622c0.686-0.768,1.632-1.819,2.253-2.458
	c0.622-0.64,0.919-0.868,1.356-1.125c0.438-0.255,1.016-0.539,1.614-0.821c0.598-0.282,1.215-0.563,2.147-0.84
	c0.934-0.279,2.181-0.552,3.678-0.813c1.496-0.261,3.242-0.508,5.219-0.69c1.977-0.183,4.184-0.302,6.045-0.376
	c1.862-0.076,3.38-0.107,6.786-0.079c3.407,0.03,8.704,0.122,13.419,0.219c4.717,0.098,8.853,0.204,11.789,0.245
	c2.936,0.041,4.673,0.019,6.611,0.02c1.938,0.001,4.079,0.026,5.531,0.038c1.451,0.012,2.215,0.009,2.955,0.021
	c0.74,0.013,1.458,0.04,2.438,0.049s2.223,0,3.241,0s1.811,0.009,2.497,0.01c0.688,0.001,1.268-0.006,2.212,0.006
	c0.945,0.011,2.254,0.041,3.813,0.077s3.37,0.08,4.777,0.131c1.407,0.052,2.412,0.111,3.508,0.201
	c1.096,0.091,2.282,0.212,3.491,0.337c1.21,0.125,2.443,0.256,3.509,0.438c1.064,0.183,1.96,0.418,2.821,0.659
	c0.859,0.239,1.685,0.484,2.572,0.812C258.334,3.603,259.284,4.014,259.991,4.401z"/>
</svg>