<?xml version="1.0" encoding="utf-8"?>
<!-- Generator: Adobe Illustrator 16.0.3, SVG Export Plug-In . SVG Version: 6.00 Build 0)  -->
<!DOCTYPE svg PUBLIC "-//W3C//DTD SVG 1.1//EN" "http://www.w3.org/Graphics/SVG/1.1/DTD/svg11.dtd">
<svg version="1.1" id="molde_t-shirt_verso" xmlns="http://www.w3.org/2000/svg" xmlns:xlink="http://www.w3.org/1999/xlink" x="0px" y="0px" 
	width="432px" height="500px" viewBox="0 0 432 500" enable-background="new 0 0 432 500" xml:space="preserve"
	shape-rendering="geometricPrecision" text-rendering="geometricPrecision" image-rendering="optimizeQuality" fill-rule="evenodd" clip-rule="evenodd">
	<path d="M282.342,12.273h0.002c0.139,0.109,0.271,0.198,0.42,0.307c0.288,0.212,0.638,0.502,1.06,0.883
	c0.421,0.38,0.912,0.854,2.024,1.686c1.111,0.833,2.843,2.025,5.022,3.368c2.181,1.343,4.811,2.837,8.916,5.014
	c4.106,2.176,9.688,5.032,14.881,7.596c5.194,2.563,9.999,4.834,14.786,6.915c4.786,2.082,9.554,3.974,14.379,5.989
	c4.824,2.014,9.706,4.152,14.02,6.262c4.314,2.11,8.061,4.191,11.938,6.735c3.879,2.545,7.891,5.553,11.712,9.129
	c3.821,3.577,7.454,7.72,10.34,11.684c2.886,3.963,5.023,7.747,6.887,11.475c1.864,3.727,3.453,7.397,4.853,11.352
	c1.4,3.955,2.611,8.192,3.626,12.048c1.657,6.296,3.064,12.749,4.506,18.281c0.529,2.034,0.926,3.376,1.617,7.223
	c0.69,3.845,1.674,10.193,2.166,13.366c0.492,3.174,0.492,3.174,0.602,3.614c0.107,0.44,0.325,1.319,1.253,4.904
	c0.928,3.585,2.563,9.877,4.044,15.389c1.481,5.514,2.806,10.248,3.706,13.268c0.901,3.021,1.379,4.326,1.693,5.384
	c0.315,1.059,0.467,1.871,0.542,2.275c0.076,0.406,0.076,0.406,0.106,0.406c0.156,0,0.275,0.126,0.278,0.269
	c0.002,0.093-0.054,0.193-0.083,0.243c-0.041,0.073-0.042,0.001,0.144,0.315c0.492,0.831,0.567,1.341,0.55,2.291
	c-0.004,0.26-0.004,0.26,0.006,0.26c0.078,0,0.216,0.136,0.184,0.305c-0.058,0.302-0.166,0.144,0.025,0.462
	c0.119,0.2,0.357,0.6,0.626,1.14c0.733,1.477,1.479,3.656,1.938,5.543c0.274,1.131,0.818,3.866,0.717,4.46
	c-0.022,0.124-0.047,0.184-0.134,0.24c-0.087,0.057-0.232,0.111-0.307,0.138c-0.073,0.027-0.073,0.027-0.087,0.089
	c-0.015,0.061-0.043,0.185-0.105,0.284c-0.063,0.101-0.16,0.179-0.898,0.572c-0.74,0.395-2.12,1.104-3.733,1.818
	c-1.613,0.714-3.458,1.434-5.146,2.048c-1.688,0.615-3.221,1.126-5.132,1.741c-1.911,0.614-4.2,1.334-6.017,1.898
	c-1.816,0.565-3.159,0.977-4.64,1.371c-1.48,0.392-3.099,0.766-4.688,1.168c-1.589,0.401-3.15,0.832-6.103,1.512
	c-2.952,0.68-7.298,1.609-9.826,2.168c-2.529,0.56-3.244,0.749-4.646,1.036c-1.402,0.287-3.493,0.672-5.541,1.071
	c-2.048,0.398-4.054,0.811-5.672,1.123c-1.617,0.311-2.848,0.525-4.357,0.756c-3.116,0.478-5.886,0.831-9.03,1.197
	c-1.625,0.188-3.72,0.43-5.664,0.554c-2.306,0.147-5.802,0.183-7.456-0.046c-0.48-0.066-0.717-0.14-0.938-0.329
	s-0.427-0.494-0.593-0.97c-0.165-0.475-0.291-1.121-0.354-1.444l-0.061-0.321c0,0,0,0.001,0,0.004c0,0.003,0,0.006,0.001,0.009
	c-0.004,0.048-0.03,0.26-0.151,1.187c-0.159,1.201-0.48,3.604-0.82,7.086c-0.342,3.481-0.7,8.041-0.966,20.651
	c-0.265,12.61-0.435,33.271-0.567,47.131c-0.133,13.858-0.228,20.916-0.076,28.758s0.549,16.47,0.748,20.783
	c0.198,4.314,0.198,4.314,0.34,4.773c0.143,0.458,0.426,1.376,0.928,3.48c0.501,2.105,1.22,5.396,1.806,8.736
	c0.588,3.34,1.042,6.726,1.268,9.803c0.228,3.077,0.228,5.844,0.004,8.98c-0.226,3.137-0.675,6.641-0.899,8.394
	c-0.225,1.752-0.225,1.752-0.196,2.755c0.029,1.004,0.085,3.009,0.208,6.99c0.123,3.984,0.313,9.943,0.639,16.599
	s0.79,14.006,1.173,19.634c0.384,5.629,0.687,9.536,0.928,12.45c0.241,2.913,0.421,4.834,0.642,6.683
	c0.222,1.847,0.483,3.624,0.732,5.089c0.248,1.465,0.482,2.619,0.595,3.587c0.112,0.969,0.103,1.752,0.099,2.144
	c-0.005,0.391-0.005,0.391,0.021,0.411c0.028,0.021,0.082,0.063,0.124,0.133c0.041,0.071,0.069,0.171,0.045,0.242
	c-0.023,0.071-0.099,0.115-0.137,0.137c-0.037,0.021-0.037,0.021,0.013,0.187c0.049,0.164,0.148,0.493,0.206,0.977
	c0.058,0.484,0.073,1.124,0.082,1.449c0.011,0.323,0.016,0.332,0.041,0.357c0.024,0.026,0.071,0.069,0.098,0.128
	c0.026,0.06,0.033,0.133,0.01,0.197c-0.022,0.065-0.078,0.122-0.104,0.15c-0.027,0.029-0.027,0.029-0.007,0.096
	c0.022,0.066,0.064,0.2,0.195,0.69c0.132,0.489,0.352,1.336,0.535,2.428c0.183,1.092,0.33,2.428,0.437,4.041
	c0.108,1.613,0.177,3.502,0.2,4.61c0.024,1.107,0.002,1.435-0.076,1.637c-0.079,0.202-0.216,0.28-0.814,0.331
	s-1.659,0.074-2.566,0.091c-0.908,0.017-1.665,0.026-4.238,0.249s-6.962,0.657-10.236,0.969c-3.272,0.313-5.429,0.502-7.639,0.706
	c-2.208,0.203-4.47,0.421-7.26,0.643c-2.791,0.223-6.111,0.449-9.957,0.695s-8.216,0.512-13.078,0.861s-10.217,0.785-15.344,1.088
	c-5.128,0.303-10.028,0.473-14.683,0.604c-4.654,0.133-9.063,0.228-14.237,0.294S237.645,500,231.164,500
	s-13.499-0.037-18.551-0.076c-5.052-0.037-8.136-0.074-11.021-0.104c-2.886-0.027-5.571-0.047-7.81-0.075
	c-2.237-0.028-4.025-0.066-6.825-0.128s-6.612-0.146-10.217-0.203c-3.604-0.058-7-0.085-11.035-0.203
	c-4.034-0.118-8.708-0.327-13.074-0.54c-4.365-0.212-8.424-0.431-11.891-0.624c-3.467-0.194-6.343-0.364-9.423-0.596
	c-3.078-0.232-6.361-0.524-8.858-0.715c-2.498-0.188-4.211-0.273-6.447-0.449c-2.237-0.175-5-0.439-8.269-0.789
	c-3.269-0.351-7.043-0.785-9.711-1.075c-2.667-0.288-4.228-0.429-6.338-0.654c-2.109-0.225-4.768-0.532-6.174-0.717
	c-1.408-0.185-1.563-0.246-1.709-0.273c-0.145-0.029-0.276-0.024-0.486-0.027c-0.211-0.002-0.499-0.012-0.673-0.202
	c-0.172-0.192-0.229-0.565-0.081-2.001c0.146-1.436,0.495-3.934,0.795-5.838c0.299-1.905,0.548-3.217,0.74-4.092
	c0.192-0.873,0.329-1.309,0.398-1.525c0.068-0.219,0.068-0.219,0.041-0.23s-0.081-0.035-0.108-0.078
	c-0.027-0.042-0.027-0.104-0.012-0.161c0.016-0.057,0.046-0.108,0.092-0.137c0.046-0.027,0.108-0.033,0.139-0.035
	c0.031-0.003,0.031-0.003,0.022-0.023c-0.008-0.022-0.024-0.064-0.032-0.296c-0.007-0.231-0.004-0.652,0.077-1.1
	c0.082-0.447,0.242-0.92,0.323-1.156c0.08-0.237,0.08-0.237,0.065-0.243c-0.014-0.005-0.042-0.018-0.068-0.078
	c-0.026-0.06-0.05-0.169-0.004-0.251c0.044-0.081,0.157-0.136,0.215-0.162c0.057-0.027,0.057-0.027,0.046-0.076
	c-0.011-0.048-0.032-0.146-0.003-0.642c0.03-0.494,0.11-1.389,0.35-2.895c0.238-1.508,0.636-3.626,1.246-8.177
	c0.61-4.55,1.434-11.531,2.005-16.602c0.573-5.07,0.895-8.23,1.377-14.181c0.482-5.951,1.125-14.691,1.892-28.445
	c0.767-13.756,1.656-32.524,2.11-43.905c0.453-11.38,0.472-15.372,0.486-23.214c0.015-7.843,0.024-19.535,0.029-28.39
	c0.004-8.854,0.004-14.872-0.035-21.327c-0.041-6.457-0.122-13.354-0.201-19.188c-0.081-5.835-0.161-10.607-0.27-14.459
	c-0.109-3.853-0.246-6.786-0.416-10.092c-0.172-3.307-0.375-6.986-0.51-9.418c-0.134-2.431-0.2-3.613-0.272-5.273
	c-0.072-1.659-0.15-3.794-0.192-5.222c-0.042-1.429-0.049-2.148-0.052-2.515c-0.003-0.365-0.004-0.377-0.005-0.384l-0.266,0.532
	c-0.101,0.222,0.019,0.139,0.064,0.325c0.037,0.153-0.065,0.271-0.17,0.348c-0.03,0.024-0.03,0.024-0.004,0.152
	c0.028,0.127,0.082,0.383,0.116,0.687c0.078,0.707,0.012,1.15-0.195,1.766c-0.051,0.151-0.051,0.151-0.024,0.159
	c0.156,0.042,0.167,0.24,0.116,0.345c-0.043,0.087-0.143,0.151-0.192,0.183c-0.05,0.032-0.05,0.032-0.006,0.137
	c0.567,1.347,0.629,2.678,0.601,4.39c-0.024,1.582-0.146,4.198-0.562,5.619c-0.187,0.64-0.433,1.07-0.647,1.363
	c-0.215,0.294-0.399,0.449-0.992,0.545c-1.438,0.229-4.922,0.092-6.873-0.022c-1.654-0.096-3.65-0.248-6.162-0.599
	c-2.512-0.35-5.538-0.898-8.713-1.504c-3.174-0.605-6.495-1.268-10.523-2.142c-4.03-0.875-8.77-1.963-12.431-2.843
	c-3.661-0.88-6.244-1.551-9.337-2.388c-3.094-0.837-6.698-1.84-9.781-2.768c-3.085-0.926-5.648-1.778-8.363-2.824
	c-2.715-1.044-5.582-2.284-8.013-3.387c-3.687-1.67-6.563-3.098-9.291-4.754c-0.578-0.352-0.59-0.368-0.603-0.397
	c-0.014-0.03-0.027-0.073-0.091-0.129c-0.263-0.232-0.343-0.1-0.339-0.476c0.018-1.794,1.371-4.808,2.063-6.663
	c0.356-0.959,0.664-1.898,0.94-2.557c0.389-0.925,0.688-1.235,0.959-1.835c0.037-0.084,0.037-0.084,0.02-0.096
	c-0.126-0.092-0.286-0.298-0.086-0.441c0.207-0.147,0.227,0.003,0.237-0.239c0.043-1.031,0.215-1.466,0.791-2.339
	c0.104-0.157,0.104-0.157,0.094-0.162c-0.065-0.026-0.109-0.171-0.117-0.255c-0.018-0.178,0.121-0.224,0.267-0.271
	c0.049-0.016,0.049-0.016,0.048-0.145c-0.008-0.803,0.085-1.348,0.506-2.801c0.361-1.243,1.006-3.271,2.029-6.566
	c1.022-3.293,2.423-7.854,3.767-12.224c1.343-4.371,2.63-8.552,3.873-12.781c1.244-4.229,2.446-8.504,3.047-10.642
	c0.601-2.138,0.601-2.138,0.775-3.297s0.525-3.476,1.248-7.162c0.725-3.684,1.822-8.735,2.636-12.34
	c0.813-3.604,1.343-5.76,2.232-9.285c0.889-3.523,2.138-8.414,3.287-12.402c1.149-3.987,2.2-7.071,3.084-9.483
	c0.885-2.413,1.604-4.153,2.776-6.598c1.173-2.446,2.8-5.596,4.247-8.15c1.447-2.554,2.716-4.512,4.291-6.64
	c1.574-2.129,3.457-4.428,4.985-6.258c3.007-3.603,4.335-5.012,7.682-7.771c1.216-1.003,2.351-1.901,4.087-3.208
	c1.735-1.305,4.071-3.018,7.549-5.028c3.476-2.01,8.093-4.318,13.031-6.532c4.938-2.214,10.198-4.332,18.05-7.652
	c7.852-3.321,18.295-7.842,24.614-10.605c6.319-2.762,8.514-3.765,10.974-4.988c2.46-1.222,5.184-2.665,7.672-4.126
	c2.488-1.462,4.739-2.942,6.316-4.073c1.578-1.131,2.481-1.911,3.252-2.568c0.997-0.851,1.773-1.494,2.695-2.039
	c0.575-0.664,1.193-1.244,2.235-1.896c0.854-0.534,2.089-1.183,3.013-1.757c0.926-0.575,1.539-1.077,2.306-1.872
	c0.767-0.793,1.684-1.882,2.483-2.654c0.799-0.771,1.48-1.225,2.914-1.75c1.433-0.524,3.618-1.12,5.77-1.551
	c2.153-0.43,4.272-0.695,8.042-0.846s9.19-0.19,15.799-0.208c6.606-0.019,14.402-0.019,21.384-0.076s13.149-0.17,19.376-0.208
	c6.228-0.038,12.513,0,16.513,0.083c3.999,0.083,5.712,0.21,6.875,0.303c1.956,0.155,3.155,0.284,4.985,0.714
	c1.604,0.377,4.09,1.089,5.449,1.869c0.672,0.385,1.197,0.834,1.827,1.511c0.632,0.676,1.371,1.579,2.108,2.342
	c0.737,0.764,1.475,1.387,1.897,1.757c0.423,0.37,0.528,0.487,1.073,0.749c0.546,0.262,1.529,0.668,2.251,1.15
	C281.351,11.143,281.673,11.753,282.342,12.273z"/>
</svg>